<?xml version="1.0" standalone="no"?>
<!DOCTYPE svg PUBLIC "-//W3C//DTD SVG 20010904//EN"
 "http://www.w3.org/TR/2001/REC-SVG-20010904/DTD/svg10.dtd">
<svg version="1.0" xmlns="http://www.w3.org/2000/svg"
 width="1607.000000pt" height="1607.000000pt" viewBox="0 0 1607.000000 1607.000000"
 preserveAspectRatio="xMidYMid meet">
<metadata>
Created by potrace 1.14, written by Peter Selinger 2001-2017
</metadata>
<g transform="translate(0.000000,1607.000000) scale(0.100000,-0.100000)"
fill="#000000" stroke="none">
<path d="M2237 15364 c-1 -1 -56 -4 -122 -7 -66 -3 -133 -9 -150 -12 -146 -30
-223 -55 -340 -111 -97 -47 -99 -48 -195 -113 -88 -61 -246 -221 -310 -316
-88 -130 -172 -319 -194 -437 -2 -13 -7 -34 -10 -48 -3 -14 -9 -41 -12 -60 -4
-19 -8 -2769 -10 -6111 -2 -6437 -4 -6150 41 -6309 9 -30 17 -62 19 -70 19
-76 94 -227 170 -340 45 -67 192 -224 255 -273 157 -123 366 -219 566 -258 59
-12 1011 -14 6175 -14 3358 0 6130 4 6160 8 258 37 512 164 703 351 202 197
320 420 373 701 16 84 18 477 18 6140 0 3328 -3 6082 -6 6120 -37 400 -280
777 -635 983 -103 60 -254 121 -338 137 -131 25 -181 32 -241 34 -66 3 -11914
7 -11917 5z"/>
</g>
</svg>
